<svg width="513" height="513" viewBox="0 0 513 513" fill="none" xmlns="http://www.w3.org/2000/svg">
<g clip-path="url(#clip0_303_549)">
<rect width="513" height="513" rx="256.5" fill="white"/>
<g clip-path="url(#clip1_303_549)">
<path d="M421.609 413.529C394.855 397.329 353.864 392.911 335.7 383.829C323.673 377.693 313.364 372.293 313.855 340.138C314.345 307.984 318.518 236.066 318.518 236.066H198C198 236.066 201.927 308.229 202.664 340.138C203.4 372.047 192.355 378.429 180.818 383.829C162.655 392.42 121.664 397.084 94.9091 413.529C68.4 429.729 70.3637 459.92 70.3637 459.92V508.275H446.645V459.92C446.4 459.92 448.364 429.729 421.609 413.529Z" fill="#F0C7B1"/>
<path opacity="0.65" d="M318.518 236.311H198C198.245 240.729 201.927 309.211 202.664 340.138C202.909 346.52 202.418 351.92 201.927 356.338C231.136 381.375 258.382 378.429 258.382 378.429C258.382 378.429 285.627 381.375 314.836 356.584C314.1 352.166 313.855 346.766 313.855 340.384C314.345 308.966 318.273 240.729 318.518 236.311Z" fill="#D19271"/>
<path d="M206.1 353.884C207.327 365.666 210.273 376.956 213.709 388.002C215.673 393.647 217.636 399.293 220.091 404.938C222.055 409.847 224.264 415.247 227.7 419.42C228.436 420.402 230.155 419.42 229.909 418.193C228.682 412.793 225.982 407.638 224.018 402.484C221.809 397.084 219.845 391.684 217.882 386.284C214.2 375.484 211.009 364.438 207.818 353.638C207.327 352.656 205.855 352.902 206.1 353.884ZM307.473 351.429C304.282 371.557 297.9 390.947 294.218 410.829C293.973 411.811 295.2 412.056 295.691 411.32C303.3 392.42 305.755 371.802 308.209 351.675C307.964 351.184 307.473 351.184 307.473 351.429ZM244.145 380.638C241.936 389.475 248.809 401.747 259.364 399.293C260.591 399.047 260.345 397.329 259.364 396.838C255.927 395.611 252.245 394.629 249.791 391.684C247.091 388.738 246.109 384.566 246.355 380.638C246.355 379.656 244.391 379.411 244.145 380.638Z" fill="#D19271"/>
<path d="M448.118 508.275C447.873 492.075 447.382 476.12 447.382 459.92L446.645 459.184C446.891 459.184 446.891 459.184 447.136 459.429C447.382 459.675 447.382 459.92 447.382 459.675V456.238C447.382 455.011 447.136 454.029 447.136 452.802C446.891 450.593 446.4 448.138 445.909 445.929C444.682 441.511 443.209 437.093 441 432.92C436.827 424.575 430.2 417.702 422.1 413.038C413.264 407.638 403.445 403.711 393.627 400.52C383.809 397.329 373.745 394.629 363.927 391.929C354.109 388.984 344.045 386.529 334.964 381.62C330.3 379.166 326.127 376.466 323.182 372.784C320.236 368.857 318.518 364.193 317.536 359.284C315.573 349.466 316.555 339.157 316.8 328.847L318.518 297.92L322.2 236.066L322.445 232.629H319.009C298.882 232.629 278.755 232.629 258.627 232.875L198.245 233.611H196.036L196.282 235.82C198.245 265.029 200.209 294.238 201.436 323.447C201.682 330.811 202.173 338.175 201.927 345.293C201.682 352.411 200.945 359.775 198 366.402C196.527 369.593 194.564 372.538 192.109 374.993C189.655 377.447 186.464 379.411 183.273 380.884C176.891 384.075 170.018 386.284 162.9 388.247C148.664 391.929 134.427 395.12 120.436 399.784C113.564 401.993 106.445 404.693 99.8182 408.129C96.6273 409.847 93.1909 411.566 90 414.02C86.8091 416.229 84.1091 418.684 81.4091 421.629C76.2546 427.275 72.5728 434.393 70.3637 441.511C69.1364 445.193 68.4 448.875 67.9091 452.802C67.6637 454.766 67.6637 456.729 67.6637 458.693V464.338L67.1728 508.275V511.466H70.6091L164.618 511.956C196.036 512.202 227.209 512.202 258.627 511.956C290.045 511.711 321.464 511.711 352.636 511.22C384.055 510.729 415.473 509.993 446.645 509.502H448.118V508.275ZM258.627 504.347H164.618L73.8 504.838L73.5546 464.093V458.693C73.5546 456.975 73.5546 455.256 73.8 453.538C74.0455 450.102 74.7819 446.666 75.7637 443.229C77.7273 436.602 80.9182 430.22 85.3364 424.82C87.5455 422.12 90.2455 419.666 92.9455 417.702C95.6455 415.493 98.8364 413.775 102.027 412.056C108.409 408.62 115.036 405.92 121.909 403.466C135.655 398.556 149.891 395.12 163.882 390.947C171 388.984 178.118 386.775 184.745 383.338C187.936 381.62 191.373 379.656 194.073 376.956C196.773 374.256 198.982 371.066 200.455 367.384C203.4 360.266 204.136 352.902 204.382 345.538C204.382 338.175 204.136 330.811 203.891 323.447L200.7 238.029L258.382 239.011C277.282 239.257 296.182 239.257 315.082 239.257C314.1 258.647 313.118 278.284 312.382 297.675C311.891 307.984 311.891 318.293 311.645 328.602C311.645 338.911 311.155 349.466 313.609 360.02C314.836 365.175 316.8 370.329 320.482 374.747C323.918 378.92 328.827 381.866 333.491 384.075C343.064 388.738 353.127 390.947 363.191 393.402C373.255 395.856 383.318 398.311 393.136 401.502C402.955 404.693 412.527 408.375 421.364 413.775C429.218 418.438 435.6 425.311 439.773 433.411C441.982 437.338 443.455 441.756 444.436 446.175C444.927 448.384 445.418 450.593 445.418 452.802C445.664 454.029 445.664 455.011 445.664 456.238V459.92L444.927 506.556C414 506.066 383.318 505.329 352.391 504.838C321.218 504.593 289.8 504.593 258.627 504.347Z" fill="#C27B55"/>
<path d="M453.027 509.257C453.027 466.302 449.1 443.72 449.1 443.72C441.736 409.356 395.345 399.047 373.745 394.384C336.436 387.02 324.409 376.711 324.409 376.711C324.409 376.711 308.7 415.984 256.909 415.984C205.118 415.984 191.127 375.238 191.127 375.238C191.127 375.238 178.118 385.302 139.091 392.666C117.736 397.329 74.5364 409.602 67.1728 443.966C67.1728 443.966 63.2455 466.547 63.2455 509.502H453.027V509.257Z" fill="#386E77"/>
<path d="M453.764 482.502C453.518 473.666 453.273 464.584 452.536 455.747L451.8 449.12C451.555 446.911 451.309 444.702 450.818 442.247C449.836 437.584 448.118 433.411 445.664 429.238C441 421.138 433.636 414.757 426.027 409.847C418.173 404.938 409.827 401.256 401.236 398.311C392.645 395.366 383.809 393.157 375.218 391.193C366.627 389.475 358.036 387.266 349.691 384.566C345.518 383.093 341.591 381.62 337.664 379.902C335.7 378.92 333.736 378.184 331.773 377.202C330.791 376.711 329.809 376.22 329.073 375.729C328.336 375.238 327.355 374.502 326.618 374.257C326.373 374.011 326.127 374.011 325.882 373.766C324.164 373.029 322.2 373.766 321.464 375.484C320.236 378.184 318.518 381.129 316.8 383.829C314.836 386.529 312.873 388.984 310.664 391.438C306.245 396.102 301.091 400.275 295.445 403.711C284.155 410.338 270.655 413.529 257.4 413.775C244.145 414.02 230.4 411.32 218.864 404.447C207.327 397.575 197.755 387.02 192.6 374.747C192.6 374.747 192.6 374.502 192.355 374.502C191.864 374.011 191.127 373.766 190.636 374.257C187.2 376.711 183.027 378.675 179.1 380.147C174.927 381.866 170.755 383.338 166.582 384.566C157.991 387.266 149.4 389.229 140.809 390.947C123.382 394.629 105.709 399.538 90.2455 409.602C82.6364 414.511 75.5182 420.893 70.8546 428.993C68.4 432.92 66.6818 437.338 65.4546 442.002C65.2091 442.493 65.2091 443.229 64.9637 443.72L64.7182 445.438L64.2273 448.875L63.4909 455.502C61.5273 473.42 60.7909 491.338 60.5455 509.257C60.5455 510.975 62.0182 512.693 63.7364 512.693L161.918 513.184C194.564 513.184 227.455 512.938 259.855 512.693L357.545 511.957L448.118 510.484L453.518 509.502C453.764 500.175 453.764 491.584 453.764 482.502ZM403.446 508.029L354.355 507.293L256.909 506.066C224.509 505.82 192.355 505.575 160.2 505.575L66.9273 506.066C66.9273 489.375 67.1727 472.684 68.6455 456.238L69.3818 449.611L69.6273 446.42L69.8727 444.702C69.8727 444.211 70.1182 443.72 70.1182 443.229C71.1 439.302 72.5727 435.129 74.5364 431.447C78.7091 424.084 84.8455 417.702 91.9637 412.793C99.0818 407.884 107.182 403.956 115.282 400.766C123.382 397.575 131.973 395.12 140.809 393.402C149.645 391.684 158.236 389.475 166.827 386.775C171 385.302 175.418 383.829 179.591 382.111C183.273 380.638 186.955 378.92 190.636 376.711C193.336 382.847 196.773 388.247 200.945 393.402C205.364 398.802 210.764 403.466 216.9 407.147C228.927 414.757 243.164 417.947 257.155 418.193C271.145 418.438 285.627 415.738 298.145 408.866C304.527 405.429 310.173 401.011 315.082 395.856C319.255 391.438 322.691 387.02 325.636 381.62C326.618 382.111 327.6 382.847 328.582 383.338C330.545 384.32 332.755 385.547 334.718 386.284C338.891 388.247 343.064 389.72 347.482 391.193C356.073 393.893 364.909 396.102 373.745 397.82C390.927 401.257 408.109 405.92 423.082 414.757C430.446 419.175 437.073 424.82 441.736 431.938C443.945 435.375 445.664 439.547 446.891 443.475C447.382 445.438 447.627 447.647 447.873 449.857L448.609 456.484C449.591 465.32 450.573 474.157 451.064 482.993C451.555 491.829 452.046 500.911 452.536 509.502L403.446 508.029ZM106.936 431.693C110.373 439.547 112.827 447.647 114.791 455.993C115.773 460.166 116.755 464.338 117.491 468.511C118.227 472.684 118.964 476.857 119.7 481.275C120.927 489.129 122.155 496.984 123.136 504.838H123.627C124.118 496.984 124.118 488.884 123.627 480.784C122.891 472.193 121.664 463.357 119.7 454.766C118.718 450.593 117.491 446.175 116.018 442.002C114.545 437.829 112.827 433.657 110.618 429.975C108.655 426.047 106.2 422.366 103.255 418.929C100.8 416.229 98.3455 413.529 95.4 411.32C95.1546 411.32 95.1546 411.566 94.9091 411.566C97.3637 414.266 99.3273 417.211 101.291 420.157C103.255 423.838 105.218 427.766 106.936 431.693ZM397.309 481.029C398.046 476.857 398.782 472.438 399.518 468.266C400.255 464.093 400.991 459.92 402.218 455.747C404.182 447.402 406.636 439.302 410.073 431.447C411.791 427.52 413.755 423.838 415.964 420.157C417.682 417.457 419.646 414.511 421.855 412.057C421.609 411.811 421.364 411.811 421.364 411.566C418.664 413.529 416.209 415.984 414 418.684C411.3 422.12 408.845 425.802 406.636 429.729C404.427 433.657 402.709 437.584 401.236 441.757C399.764 445.929 398.536 450.102 397.555 454.52C395.591 463.111 394.364 471.702 393.627 480.538C393.136 489.129 392.891 497.966 393.627 506.557C394.855 497.966 396.082 489.62 397.309 481.029ZM297.655 420.157C284.891 427.275 269.918 429.729 255.191 428.747C251.509 428.502 247.827 428.256 244.145 427.766C240.464 427.275 237.027 426.538 233.345 425.557C229.909 424.575 226.473 423.347 223.036 421.875C219.845 420.402 216.409 418.684 213.464 416.72C207.327 412.793 201.682 407.884 197.018 402.484C192.109 397.084 187.936 390.947 184.745 384.566C189.655 398.311 198.982 410.829 211.5 419.666C217.636 424.084 224.755 427.52 232.118 429.729C235.8 430.711 239.727 431.693 243.409 432.184C247.336 432.675 251.018 433.166 254.945 433.166C262.555 433.411 270.409 433.166 278.018 431.447C285.627 429.729 292.991 427.029 299.618 423.102C306.245 419.175 312.136 414.266 317.291 408.866C322.445 403.466 327.109 397.575 331.036 391.438C321.218 402.484 310.664 413.038 297.655 420.157Z" fill="#184F58"/>
<path d="M165.109 197.038C164.618 196.302 157.009 186.484 150.627 180.593C144.245 174.702 142.282 174.702 139.336 178.384C136.145 182.066 132.218 200.72 133.2 208.82C134.182 217.166 142.036 230.175 145.964 237.538C150.136 244.902 154.064 253.984 158.482 253.002C163.145 252.02 169.282 241.711 172.473 234.102C175.664 226.493 173.7 207.593 165.109 197.038Z" fill="#F0C7B1"/>
<path d="M174.436 219.375C174.682 221.584 174.927 223.547 174.927 225.756C174.927 227.966 174.927 229.929 174.436 232.138C174.191 233.12 173.945 234.347 173.7 235.329C173.455 236.311 172.964 237.047 172.718 238.029C171.982 239.747 171.245 241.466 170.264 243.184C168.545 246.375 166.582 249.566 163.882 252.02C162.655 253.247 161.182 254.475 159.464 255.211C158.482 255.456 157.255 255.456 156.273 255.211C155.291 254.72 154.309 253.984 153.573 253.247C150.627 250.056 148.909 246.375 146.945 242.693C145.227 239.011 143.264 235.575 141.545 232.138C139.827 228.456 137.864 225.02 136.391 221.338C135.655 219.375 134.673 217.656 134.182 215.693C133.445 213.729 132.955 211.766 132.709 209.556C132.218 205.384 132.709 201.211 132.955 197.284C133.445 193.356 134.182 189.429 134.918 185.502C135.409 183.538 135.9 181.575 136.882 179.856L137.618 178.384C137.864 177.893 138.355 177.402 138.6 177.156C139.091 176.42 139.827 175.684 140.809 175.193C141.545 174.702 142.773 174.456 143.755 174.456C144.736 174.702 145.718 175.193 146.455 175.684C148.173 176.666 149.4 178.138 150.873 179.366C156.273 184.766 160.691 191.147 165.355 197.038C170.018 202.929 173.209 211.029 174.436 219.375ZM149.645 181.084C146.945 178.875 143.755 176.42 142.036 178.138C141.545 178.384 141.055 179.12 140.564 179.611L139.827 180.347C139.582 180.593 139.582 181.084 139.336 181.329C138.6 182.802 138.109 184.52 137.373 186.238C136.145 189.675 135.164 193.356 134.673 197.284C133.936 200.966 133.445 204.893 133.691 208.82C133.936 210.784 134.427 212.747 135.164 214.466C135.9 216.429 136.636 218.147 137.373 219.866C139.091 223.547 141.055 226.738 143.018 230.175C144.982 233.611 147.191 236.802 149.155 240.238C150.136 241.956 151.118 243.675 152.1 245.147C153.082 246.62 154.064 248.338 155.291 249.32C156.518 250.302 157.5 250.793 158.482 250.302C159.709 249.811 160.691 248.829 161.918 247.602C164.127 245.147 165.845 242.447 167.564 239.256C168.545 237.784 169.282 236.066 170.018 234.593C170.509 233.856 170.755 232.875 171 232.138L171.491 230.911C171.491 230.42 171.736 230.175 171.736 229.684C172.473 226.247 172.718 222.32 172.473 218.393C172.227 214.466 171.491 210.538 170.264 206.611C169.036 202.684 167.318 199.247 164.864 196.302C160.2 191.147 155.045 185.747 149.645 181.084Z" fill="#E1AC8F"/>
<path d="M138.6 212.993C137.864 207.347 137.373 193.847 140.564 189.429C145.964 182.311 155.291 205.138 157.5 212.256C157.5 212.502 157.745 212.747 157.745 212.993C158.236 213.729 157.5 214.711 156.764 214.466C155.782 213.975 154.555 212.993 153.573 212.502C150.873 211.275 149.645 213.729 150.382 216.92C151.364 221.338 153.818 224.038 155.782 227.475C156.027 227.966 155.782 228.456 155.291 228.211C151.364 226.002 146.7 217.166 147.682 212.011C148.418 207.102 152.345 207.593 155.291 210.047C153.573 205.875 151.609 201.947 149.155 198.266C147.682 196.056 146.209 193.356 143.755 192.866C140.809 192.375 141.3 193.602 140.809 197.284C138.845 209.066 140.073 222.811 146.945 232.875C147.191 233.12 146.945 233.366 146.7 233.12C142.282 227.475 139.336 221.093 138.6 212.993Z" fill="#D19271"/>
<path d="M351.655 197.038C352.145 196.302 359.755 186.484 366.136 180.593C372.518 174.702 374.482 174.702 377.427 178.384C380.618 182.066 384.545 200.72 383.564 208.82C382.582 216.92 374.727 230.175 370.8 237.538C366.627 244.902 362.7 253.984 358.282 253.002C353.618 252.02 347.482 241.711 344.291 234.102C341.1 226.493 343.064 207.593 351.655 197.038Z" fill="#F0C7B1"/>
<path d="M351.655 197.038C356.318 191.147 360.982 184.766 366.136 179.366C367.364 178.138 368.836 176.666 370.555 175.684C371.291 175.193 372.273 174.702 373.255 174.457C374.236 174.211 375.464 174.702 376.2 175.193C376.936 175.684 377.673 176.42 378.409 177.157C378.655 177.402 378.9 177.893 379.391 178.384L380.127 179.857C380.864 181.575 381.6 183.538 382.091 185.502C383.073 189.429 383.809 193.357 384.055 197.284C384.545 201.211 384.791 205.384 384.3 209.557C384.055 211.766 383.318 213.729 382.827 215.693C382.091 217.657 381.355 219.62 380.618 221.338C378.9 225.02 377.182 228.702 375.464 232.138C373.5 235.82 371.782 239.257 370.064 242.693C368.1 246.129 366.627 250.057 363.436 253.247C362.7 253.984 361.718 254.72 360.736 255.211C359.755 255.702 358.527 255.702 357.545 255.211C355.582 254.475 354.355 253.247 353.127 252.02C350.673 249.32 348.709 246.375 346.745 243.184C345.764 241.466 345.027 239.747 344.291 238.029C343.8 237.047 343.555 236.311 343.309 235.329C343.064 234.347 342.573 233.366 342.573 232.138C342.327 229.929 342.082 227.966 342.082 225.757C342.082 223.547 342.327 221.584 342.573 219.375C343.555 211.029 346.745 202.929 351.655 197.038ZM351.9 197.284C349.445 200.229 347.727 203.911 346.5 207.593C345.273 211.52 344.536 215.447 344.291 219.375C344.045 223.302 344.291 227.229 345.027 230.666C345.027 231.157 345.273 231.402 345.273 231.893L345.764 233.12C346.009 233.857 346.5 234.838 346.745 235.575C347.482 237.293 348.218 238.766 349.2 240.238C350.918 243.184 352.882 246.129 354.845 248.584C355.827 249.811 357.055 250.793 358.282 251.284C359.264 251.775 360.245 251.284 361.473 250.302C362.7 249.32 363.682 247.847 364.664 246.129C365.645 244.657 366.627 242.938 367.609 241.22C369.573 237.784 371.782 234.347 373.745 231.157C375.709 227.72 377.673 224.284 379.391 220.847C380.373 219.129 381.109 217.166 381.6 215.447C382.336 213.484 382.827 211.52 383.073 209.802C383.318 205.875 382.827 201.947 382.091 198.266C381.355 194.584 380.373 190.902 379.391 187.22C378.9 185.502 378.164 183.784 377.427 182.311C377.182 182.066 377.182 181.575 376.936 181.329C376.691 181.084 376.691 180.838 376.2 180.593C375.709 180.102 375.218 179.366 374.727 179.12C373.009 177.647 369.818 180.102 367.118 182.066C361.718 185.747 356.564 191.147 351.9 197.284Z" fill="#E1AC8F"/>
<path d="M378.164 212.993C378.9 207.347 379.391 193.847 376.2 189.429C370.8 182.311 361.473 205.138 359.264 212.256C359.264 212.502 359.018 212.747 359.018 212.993C358.527 213.729 359.264 214.711 360 214.466C360.982 213.975 362.209 212.993 363.191 212.502C365.891 211.275 367.118 213.729 366.382 216.92C365.4 221.338 362.945 224.038 360.982 227.475C360.736 227.966 360.982 228.457 361.473 228.211C365.4 226.002 370.064 217.166 369.082 212.011C368.345 207.102 364.418 207.593 361.473 210.047C363.191 205.875 365.155 201.947 367.609 198.266C369.082 196.057 370.555 193.356 373.009 192.866C375.955 192.375 375.464 193.602 375.955 197.284C377.918 209.066 376.691 222.811 369.818 232.875C369.573 233.12 369.818 233.366 370.064 233.12C374.482 227.475 377.427 221.093 378.164 212.993Z" fill="#D19271"/>
<path d="M364.418 170.284V169.547C361.227 96.1565 313.609 55.6565 258.382 55.6565C203.155 55.6565 155.536 96.1565 152.591 169.547V170.284C152.591 177.647 152.591 244.411 166.582 273.129C203.645 349.466 258.382 346.275 258.382 346.275C258.382 346.275 313.118 349.711 350.427 273.129C364.418 244.411 364.418 177.647 364.418 170.284Z" fill="#F0C7B1"/>
<path d="M350.427 273.129C364.418 244.411 364.418 177.647 364.418 170.284V169.547C361.227 96.1565 313.609 55.6565 258.382 55.6565C203.155 55.6565 155.536 96.1565 152.591 169.547V170.284C152.591 177.647 152.591 244.411 166.582 273.129C203.645 349.466 258.382 346.275 258.382 346.275C258.382 346.275 313.118 349.711 350.427 273.129ZM228.191 332.284C217.882 328.111 207.327 318.784 199.227 310.684L193.336 304.547L187.936 297.675C185.973 295.466 184.5 293.011 182.782 290.556C181.309 288.102 179.591 285.893 177.873 283.193L173.7 275.584C172.227 273.129 170.755 270.429 169.773 267.975C167.318 263.066 165.845 257.42 164.127 251.775C161.182 240.484 159.218 228.702 157.745 216.92C156.273 205.138 155.291 193.111 154.8 181.329C154.555 175.438 154.309 169.302 154.8 163.657C155.045 160.711 155.045 157.766 155.536 154.82L157.009 145.984L157.255 143.775L157.745 141.566L158.973 137.393L160.2 133.22C160.445 131.747 161.182 130.52 161.673 129.047C162.655 126.347 163.636 123.402 164.864 120.702L168.791 112.847C174.436 102.538 181.8 93.211 190.391 85.602C198.982 77.9929 209.045 71.8565 219.845 67.9292C230.645 64.0019 241.936 61.7929 253.227 61.3019C264.518 60.811 276.055 62.0383 287.1 64.9838C308.945 70.8747 328.827 84.3747 342.573 103.52L347.482 110.884C348.955 113.338 350.182 116.038 351.655 118.738C353.127 121.438 354.109 124.138 355.336 126.838C356.318 129.538 357.545 132.238 358.282 135.184L360.736 143.775C361.227 146.72 361.964 149.666 362.455 152.611L363.191 157.029L363.682 161.693C363.927 165.375 364.173 171.02 364.173 174.702C363.927 192.129 362.7 209.556 359.755 226.738C358.282 236.066 356.318 245.147 353.618 254.229C352.882 256.438 352.391 258.647 351.409 260.857C350.427 263.066 349.936 265.275 348.955 267.238C347.236 271.166 344.536 275.093 342.327 279.266C341.1 281.229 340.118 283.193 338.645 285.156L334.718 290.802C333.246 292.766 332.264 294.729 330.791 296.447L326.373 301.602C323.673 305.284 320.236 308.229 317.291 311.666C315.818 313.384 309.191 319.029 307.227 320.257C307.227 320.257 301.582 324.675 289.309 331.302C286.364 332.775 283.418 334.247 280.227 335.229C269.673 339.402 257.891 344.311 228.191 332.284Z" fill="#C27B55"/>
<path d="M229.934 285.451C234.818 294.582 246.011 299.098 256.05 299.467C266.654 299.884 281.307 295.76 288.376 287.464C289.235 286.457 288.155 285.058 286.928 285.451C282.289 287.022 278.288 290.066 273.796 291.98C268.863 294.091 263.463 295.539 258.038 295.834C247.214 296.398 238.598 292.029 231.235 284.518C230.67 283.978 229.541 284.739 229.934 285.451Z" fill="#E1AC8F"/>
<path d="M249.128 293.698C257.842 295.932 271.906 294.287 278.018 287.071C278.534 286.457 278.043 285.181 277.11 285.402C272.815 286.359 269.035 288.716 264.837 289.943C259.707 291.44 254.504 291.784 249.153 292.25C248.318 292.324 248.343 293.477 249.128 293.698Z" fill="#F8D5C3"/>
<path d="M245.667 273.129C241.421 272.614 239.703 272.982 235.579 274.97C231.455 276.958 229.443 277.326 225.933 276.345C222.251 275.314 220.975 270.945 220.975 270.945C219.698 270.945 219.379 274.921 222.57 277.744C225.761 280.566 236.168 281.254 243.016 280.984C251.534 280.665 256.271 280.567 256.271 280.567H259.609C259.609 280.567 264.322 280.665 272.864 280.984C279.712 281.229 290.144 280.566 293.31 277.744C296.476 274.921 296.182 270.945 294.905 270.945C294.905 270.945 293.629 275.314 289.947 276.345C286.413 277.326 284.425 276.958 280.301 274.97C276.177 272.982 274.459 272.614 270.213 273.129C268.102 273.375 262.702 275.093 257.645 275.093C254.16 275.093 247.778 273.399 245.667 273.129Z" fill="#A06B59"/>
<path d="M232.609 201.456C232.609 201.456 230.4 196.793 225.491 193.357C220.582 190.166 213.709 186.729 203.4 189.184C193.091 191.638 187.2 197.284 183.518 202.193C183.518 202.193 184.5 203.42 186.955 204.893C189.409 206.366 198.491 211.52 208.555 211.029C218.618 210.538 227.7 204.893 229.418 203.911C231.136 203.175 232.609 201.456 232.609 201.456Z" fill="white"/>
<path d="M209.536 185.993C216.409 185.993 222.3 191.638 222.3 198.757C222.3 205.875 216.655 211.52 209.536 211.52C202.418 211.52 196.773 205.875 196.773 198.757C196.773 191.638 202.418 185.993 209.536 185.993Z" fill="#2E0000"/>
<path d="M209.536 191.884C213.218 191.884 216.409 194.829 216.409 198.757C216.409 202.684 213.464 205.629 209.536 205.629C205.609 205.629 202.664 202.684 202.664 198.757C202.664 194.829 205.609 191.884 209.536 191.884Z" fill="black"/>
<path d="M207.818 193.111L206.345 191.638C205.855 191.147 205.364 190.902 204.627 190.902C204.136 190.902 203.4 191.147 202.909 191.638C202.418 192.129 202.173 192.62 202.173 193.357C202.173 194.093 202.418 194.584 202.909 195.075L204.382 196.547C204.873 197.038 205.364 197.284 206.1 197.284C206.591 197.284 207.327 197.038 207.818 196.547C208.555 195.32 208.8 193.847 207.818 193.111ZM213.955 204.647C216.164 204.647 216.164 201.211 213.955 201.211C211.745 201.211 211.991 204.647 213.955 204.647Z" fill="white"/>
<path d="M183.273 201.211C183.273 216.92 194.809 229.438 209.291 229.438C223.773 229.438 235.309 216.675 235.309 201.211C235.309 185.747 223.773 172.984 209.291 172.984C194.809 172.984 183.273 185.502 183.273 201.211ZM183.518 202.438C187.2 197.775 193.336 191.884 203.4 189.429C213.464 186.975 220.582 190.411 225.491 193.602C230.4 196.793 232.609 201.702 232.609 201.702C232.609 201.702 231.136 203.175 229.418 204.402C227.7 205.384 218.618 211.029 208.555 211.52C198.491 212.011 189.409 206.857 186.955 205.384C184.745 203.666 183.518 202.438 183.518 202.438Z" fill="#F0C7B1"/>
<path d="M231.382 194.093C220.582 185.257 207.573 183.538 194.564 187.711C194.073 187.957 193.827 187.22 194.318 186.975C206.591 181.575 222.055 184.766 231.627 193.847C231.873 193.847 231.627 194.093 231.382 194.093Z" fill="#E1AC8F"/>
<path d="M182.045 204.647C182.536 204.157 183.273 203.666 183.764 203.175C196.282 215.938 220.582 214.22 232.855 202.193C232.855 202.193 232.855 202.438 233.1 202.438C233.345 202.929 234.082 202.438 233.836 201.947C233.836 201.702 233.591 201.702 233.591 201.457C233.836 201.211 233.591 200.72 233.1 200.72C227.945 191.884 217.636 187.466 207.573 187.957C198 188.447 184.991 194.829 181.309 204.157C180.818 204.893 181.555 205.138 182.045 204.647ZM184.255 202.684C187.2 199.984 189.655 196.793 193.336 194.584C197.264 192.129 201.436 190.411 206.1 189.675C216.409 187.957 226.718 192.866 232.118 201.457C225.245 206.611 217.636 210.293 208.8 210.538C199.227 210.784 192.355 207.347 184.255 202.684Z" fill="black"/>
<path d="M284.155 201.456C284.155 201.456 286.364 196.793 291.273 193.357C296.182 190.166 303.055 186.729 313.364 189.184C323.673 191.638 329.564 197.284 333.246 202.193C333.246 202.193 332.264 203.42 329.809 204.893C327.355 206.366 318.273 211.52 308.209 211.029C298.146 210.538 289.064 204.893 287.346 203.911C285.627 203.175 284.155 201.456 284.155 201.456Z" fill="white"/>
<path d="M307.227 185.993C314.1 185.993 319.991 191.638 319.991 198.757C319.991 205.875 314.345 211.52 307.227 211.52C300.109 211.52 294.464 205.875 294.464 198.757C294.464 191.638 300.355 185.993 307.227 185.993Z" fill="#2E0000"/>
<path d="M307.227 191.884C310.909 191.884 314.1 194.829 314.1 198.757C314.1 202.684 311.155 205.629 307.227 205.629C303.3 205.629 300.355 202.684 300.355 198.757C300.355 194.829 303.545 191.884 307.227 191.884Z" fill="black"/>
<path d="M305.755 193.111L304.282 191.638C303.791 191.147 303.3 190.902 302.564 190.902C302.073 190.902 301.336 191.147 300.845 191.638C300.355 192.129 300.109 192.62 300.109 193.357C300.109 194.093 300.355 194.584 300.845 195.075L302.318 196.547C302.809 197.038 303.3 197.284 304.036 197.284C304.527 197.284 305.264 197.038 305.755 196.547C306.491 195.32 306.736 193.847 305.755 193.111ZM311.891 204.647C314.1 204.647 314.1 201.211 311.891 201.211C309.682 201.211 309.682 204.647 311.891 204.647Z" fill="white"/>
<path d="M307.473 172.984C292.991 172.984 281.455 185.747 281.455 201.211C281.455 216.675 292.991 229.438 307.473 229.438C321.955 229.438 333.491 216.675 333.491 201.211C333.491 185.747 321.709 172.984 307.473 172.984ZM329.809 205.138C327.355 206.611 318.273 211.766 308.209 211.275C298.146 210.784 289.064 205.138 287.346 204.157C285.627 203.175 284.155 201.456 284.155 201.456C284.155 201.456 286.364 196.793 291.273 193.356C296.182 190.166 303.055 186.729 313.364 189.184C323.673 191.638 329.564 197.284 333.245 202.193C333.245 202.438 332.018 203.666 329.809 205.138Z" fill="#F0C7B1"/>
<path d="M285.382 194.093C296.182 185.257 309.191 183.538 322.2 187.711C322.691 187.957 322.936 187.22 322.445 186.975C310.173 181.575 294.709 184.766 285.136 193.847C284.891 193.847 285.136 194.093 285.382 194.093Z" fill="#E1AC8F"/>
<path d="M335.7 204.157C332.018 194.829 319.009 188.447 309.436 187.957C299.373 187.466 289.064 191.884 283.909 200.72C283.664 200.72 283.173 201.211 283.418 201.457C283.418 201.702 283.173 201.702 283.173 201.947C282.927 202.438 283.664 202.929 283.909 202.438C283.909 202.438 283.909 202.193 284.155 202.193C296.427 214.466 320.727 216.184 333.245 203.175C333.736 203.666 334.227 204.157 334.964 204.647C335.209 205.138 335.945 204.893 335.7 204.157ZM307.964 210.538C299.127 210.293 291.518 206.366 284.645 201.457C290.045 192.62 300.355 187.957 310.664 189.675C315.082 190.411 319.5 192.129 323.427 194.584C327.109 196.793 329.564 199.984 332.509 202.684C324.409 207.347 317.536 210.784 307.964 210.538Z" fill="black"/>
<path d="M177.382 171.511C177.627 170.775 178.118 170.038 178.609 169.547C178.855 169.056 179.345 168.32 179.836 167.829C180.327 167.338 180.818 166.847 181.555 166.357C182.782 164.147 185.727 162.429 187.691 161.202C189.9 159.975 192.109 158.993 194.809 158.993C197.264 158.502 199.964 158.502 201.927 159.484C202.909 159.484 203.645 159.729 204.382 160.22C207.082 159.975 210.027 160.711 212.482 161.202C215.918 161.938 219.355 162.675 222.545 164.147C225.982 164.147 229.418 164.393 232.609 165.375L233.1 165.375C233.345 165.375 233.591 165.62 233.591 165.62L233.836 165.62C234.082 165.62 234.327 165.866 234.573 166.111C234.818 166.357 234.573 166.847 234.573 167.093L234.573 167.338C234.573 167.829 234.573 168.32 234.327 168.811C234.327 170.284 234.082 171.511 233.1 172.738C233.1 172.984 233.1 173.229 232.855 173.475C232.609 174.702 232.364 176.175 231.136 176.911C230.645 177.402 229.909 177.647 229.173 177.647C228.927 177.647 228.682 177.647 228.436 177.402L226.964 177.402C225.491 177.893 223.527 177.402 222.3 177.157C220.827 176.911 219.355 176.42 218.127 175.684C213.709 174.947 209.536 173.72 205.118 172.738C201.191 171.757 195.3 171.756 191.864 169.547C190.145 169.793 188.673 170.038 186.955 170.038C186.218 170.038 185.236 170.284 184.255 170.038C183.764 170.038 183.027 170.038 182.536 169.547C182.536 169.547 182.291 169.547 182.291 169.302L182.045 169.302L181.064 170.284C180.327 171.02 179.345 172.002 178.118 172.247C177.873 172.738 177.382 172.247 177.382 171.511Z" fill="#2A232B"/>
<path d="M228.191 172.738C227.945 171.266 227.7 169.793 227.209 168.566C227.209 168.075 227.7 167.829 227.945 168.32C229.664 170.775 230.155 175.193 228.436 177.893C228.191 178.384 227.7 178.138 227.7 177.647C227.945 175.684 228.191 174.211 228.191 172.738ZM219.845 164.884C223.036 166.847 225 171.266 225 174.702C225 175.193 224.264 175.438 224.264 174.947C223.773 173.229 223.282 171.756 222.545 170.284C221.809 168.566 220.336 167.338 219.355 165.62C218.618 165.129 219.355 164.638 219.845 164.884ZM211.745 163.166C217.145 165.129 221.073 171.02 222.055 176.175C222.055 176.666 221.564 176.666 221.318 176.42C220.336 173.966 219.109 171.511 217.145 169.547C215.427 167.338 213.218 166.111 211.009 164.147C210.518 163.902 211.255 162.92 211.745 163.166ZM199.718 161.202C205.609 162.675 211.5 167.584 213.955 172.738C214.2 173.229 213.218 173.72 212.973 173.229C211.009 170.775 209.045 168.566 206.591 166.602C204.382 164.884 201.682 163.656 199.227 162.184C198.736 161.938 198.982 161.202 199.718 161.202ZM178.364 170.284C182.291 165.866 187.691 159.729 194.318 160.466C194.809 160.466 194.809 161.202 194.318 161.202C187.936 161.693 183.764 167.338 178.855 170.775C178.364 171.02 177.873 170.529 178.364 170.284Z" fill="#3A353A"/>
<path d="M236.045 166.847C235.8 166.111 234.818 166.111 234.573 166.847C233.836 169.547 233.836 172.738 231.627 174.947C230.155 176.666 227.945 176.911 225.736 176.666C226.473 172.984 226.227 167.584 223.773 164.638C223.282 164.147 222.545 164.393 222.791 165.129C222.791 167.093 223.773 169.056 224.018 171.02C224.264 172.984 224.509 174.702 224.509 176.666C224.264 176.666 224.018 176.666 223.773 176.42C223.036 171.511 220.582 166.356 216.9 162.92C222.545 164.147 228.191 165.129 233.836 165.62C234.082 165.62 234.327 165.129 234.082 165.129C227.7 162.92 221.073 161.693 214.445 160.22C208.555 158.993 201.927 156.784 195.791 156.538C190.636 156.293 186.955 158.747 183.518 161.938C179.836 165.375 175.909 169.547 173.455 173.966L172.964 174.456C172.718 174.702 172.473 175.193 172.718 175.438C172.718 175.438 172.718 175.684 172.473 175.684C171.982 176.666 173.209 177.402 173.945 176.666C174.191 176.666 174.436 176.666 174.682 176.42C178.118 174.702 180.818 172.984 184.745 172.493C187.936 172.002 191.373 172.247 194.564 172.738C201.682 173.72 208.309 175.929 214.936 177.893C220.091 179.366 226.964 182.066 231.873 178.384C236.045 175.929 236.536 170.775 236.045 166.847ZM203.155 170.038C201.927 169.793 200.455 169.547 198.982 169.302C199.227 166.602 198.245 163.656 197.018 161.202C198.736 162.675 200.455 164.147 201.927 165.866C203.4 167.338 204.136 169.302 205.609 170.775C204.627 170.529 203.891 170.284 203.155 170.038ZM184.745 164.147C187.691 161.447 190.882 159.975 194.564 159.484C195.055 161.447 196.036 163.411 196.282 165.375L197.018 169.056C196.282 169.056 195.3 168.811 194.564 168.811C193.336 166.602 191.373 164.393 188.918 163.656C188.427 163.411 188.182 164.147 188.427 164.638C189.409 165.62 190.636 166.602 191.618 167.584C191.864 168.075 192.109 168.32 192.6 168.811C187.936 168.566 183.273 169.056 179.345 170.775C180.818 168.32 182.536 166.111 184.745 164.147ZM222.055 175.929C221.564 175.684 221.073 175.684 220.582 175.438C219.6 175.193 218.373 174.702 217.391 174.456C215.427 170.038 212.236 165.62 208.309 162.675C207.818 162.429 207.327 162.92 207.573 163.166C210.518 166.602 212.973 170.284 215.673 173.966C212.973 172.984 210.273 172.247 207.818 171.266C207.327 168.566 204.873 165.866 203.155 163.902C201.436 162.184 199.473 160.466 197.264 159.238C198.245 159.238 199.227 159.484 200.455 159.484C205.364 160.22 210.273 161.447 215.182 162.429L215.182 162.675C216.9 165.375 218.864 168.075 220.336 170.775C220.827 172.493 221.318 174.211 222.055 175.929Z" fill="#1B141C"/>
<path d="M339.382 171.511C339.136 170.775 338.645 170.038 338.155 169.547C337.909 169.056 337.418 168.32 336.927 167.829C336.436 167.338 335.945 166.847 335.209 166.357C333.982 164.147 331.036 162.429 329.073 161.202C326.864 159.975 324.655 158.993 321.955 158.993C319.5 158.502 316.8 158.502 314.836 159.484C313.855 159.484 313.118 159.729 312.382 160.22C309.682 159.975 306.736 160.711 304.282 161.202C300.845 161.938 297.409 162.675 294.218 164.147C290.782 164.147 287.345 164.393 284.155 165.375L283.664 165.375C283.418 165.375 283.173 165.62 283.173 165.62L282.927 165.62C282.682 165.62 282.436 165.866 282.191 166.111C281.945 166.357 282.191 166.847 282.191 167.093L282.191 167.338C282.191 167.829 282.191 168.32 282.436 168.811C282.436 170.284 282.682 171.511 283.664 172.738C283.664 172.984 283.664 173.229 283.909 173.475C284.155 174.702 284.4 176.175 285.627 176.911C286.118 177.402 286.855 177.647 287.591 177.647C287.836 177.647 288.082 177.647 288.327 177.402L289.8 177.402C291.273 177.893 293.236 177.402 294.464 177.157C295.936 176.911 297.409 176.42 298.636 175.684C303.055 174.947 307.227 173.72 311.645 172.738C315.573 171.757 321.464 171.756 324.9 169.547C326.618 169.793 328.336 170.038 329.809 170.038C330.546 170.038 331.527 170.284 332.509 170.038C333 170.038 333.736 170.038 334.227 169.547C334.227 169.547 334.473 169.547 334.473 169.302L334.718 169.302L335.7 170.284C336.436 171.02 337.418 172.002 338.645 172.247C338.891 172.738 339.382 172.247 339.382 171.511Z" fill="#2A232B"/>
<path d="M288.573 172.738C288.818 171.266 289.064 169.793 289.555 168.566C289.555 168.075 289.064 167.829 288.818 168.32C287.1 170.775 286.609 175.193 288.327 177.893C288.573 178.384 289.064 178.138 289.064 177.647C288.818 175.684 288.573 174.211 288.573 172.738ZM296.918 164.884C293.727 166.847 291.764 171.266 291.764 174.702C291.764 175.193 292.5 175.438 292.5 174.947C292.991 173.229 293.482 171.756 294.218 170.284C294.955 168.566 296.427 167.338 297.409 165.62C298.145 165.129 297.409 164.638 296.918 164.884ZM305.018 163.166C299.618 165.129 295.691 171.02 294.709 176.175C294.709 176.666 295.2 176.666 295.445 176.42C296.427 173.966 297.655 171.511 299.618 169.547C301.336 167.338 303.545 166.111 305.755 164.147C306.245 163.902 305.509 162.92 305.018 163.166ZM317.045 161.202C311.155 162.675 305.264 167.584 302.809 172.738C302.564 173.229 303.545 173.72 303.791 173.229C305.755 170.775 307.718 168.566 310.173 166.602C312.382 164.884 315.082 163.656 317.536 162.184C318.027 161.938 317.782 161.202 317.045 161.202ZM338.4 170.284C334.473 165.866 329.073 159.729 322.445 160.466C321.955 160.466 321.955 161.202 322.445 161.202C328.827 161.693 333 167.338 337.909 170.775C338.4 171.02 338.891 170.529 338.4 170.284Z" fill="#3A353A"/>
<path d="M284.4 178.384C289.309 182.066 296.182 179.366 301.336 177.893C308.209 175.929 314.836 173.475 321.709 172.738C324.9 172.247 328.336 172.002 331.527 172.493C335.455 172.984 338.155 174.702 341.591 176.42C341.836 176.666 342.082 176.666 342.327 176.666C343.064 177.402 344.291 176.666 343.8 175.684C343.8 175.684 343.8 175.438 343.555 175.438C343.555 175.193 343.555 174.702 343.309 174.456L342.818 173.966C340.364 169.547 336.436 165.375 332.755 161.938C329.318 158.747 325.636 156.293 320.482 156.538C314.345 156.784 307.718 158.993 301.827 160.22C295.2 161.693 288.573 162.92 282.191 165.129C281.7 165.375 281.945 165.62 282.436 165.62C288.082 165.129 293.727 164.147 299.373 162.92C295.691 166.356 293.236 171.511 292.5 176.42C292.255 176.42 292.009 176.42 291.764 176.666C292.009 174.702 292.009 172.984 292.255 171.02C292.5 169.056 293.482 167.093 293.482 165.129C293.482 164.638 292.745 164.393 292.5 164.638C290.045 167.584 289.8 172.984 290.536 176.666C288.327 176.911 286.364 176.666 284.645 174.947C282.682 172.738 282.436 169.547 281.7 166.602C281.455 165.866 280.473 165.866 280.227 166.602C280.227 170.775 280.718 175.929 284.4 178.384ZM311.155 170.529C312.382 169.056 313.364 167.093 314.836 165.62C316.309 163.902 318.027 162.429 319.745 160.956C318.518 163.411 317.536 166.602 317.782 169.056C316.309 169.302 314.836 169.547 313.609 169.793C312.873 170.284 312.136 170.529 311.155 170.529ZM337.664 170.529C333.736 168.811 328.827 168.32 324.409 168.566C324.655 168.075 324.9 167.829 325.391 167.338C326.373 166.111 327.6 165.375 328.582 164.393C328.827 164.147 328.827 163.411 328.091 163.411C325.636 164.147 323.673 166.356 322.445 168.566C321.709 168.566 320.727 168.811 319.991 168.811L320.727 165.129C321.218 163.166 321.955 161.202 322.445 159.238C325.882 159.729 329.073 161.202 332.264 163.902C334.227 166.111 335.945 168.32 337.664 170.529ZM296.673 171.02C298.145 168.075 300.109 165.62 301.827 162.92L301.827 162.675C306.736 161.693 311.645 160.466 316.555 159.729C317.536 159.484 318.764 159.484 319.745 159.484C317.536 160.711 315.573 162.429 313.855 164.147C312.136 166.111 309.682 168.811 309.191 171.511C306.491 172.247 303.791 173.229 301.336 174.211C303.791 170.529 306.491 167.093 309.436 163.411C309.682 162.92 309.191 162.675 308.7 162.92C304.773 165.866 301.582 170.284 299.618 174.702C298.636 174.947 297.409 175.438 296.427 175.684C295.936 175.929 295.445 175.929 294.955 176.175C295.445 174.211 295.936 172.493 296.673 171.02Z" fill="#1B141C"/>
<path d="M276.57 236.262C280.375 239.355 282.338 243.11 282.633 246.129C282.927 249.148 281.062 251.897 278.73 253.174C276.374 254.45 272.373 253.665 269.55 250.155C269.55 250.155 263.88 254.156 261.916 254.647C259.953 255.137 250.454 252.192 247.827 250.302C247.827 250.302 245.79 254.057 241.004 253.076C236.217 252.094 233.861 247.406 235.039 243.797C236.217 240.189 238.942 237.44 240.415 236.262C241.887 235.084 246.87 231.574 251.067 230.396C255.265 229.217 264.445 226.395 276.57 236.262Z" fill="#F0C7B1"/>
<path d="M276.815 235.55C276.423 235.182 275.711 235.526 275.883 236.09C276.938 239.428 280.276 241.367 281.405 244.681C282.191 247.013 281.504 249.836 279.638 251.456C276.742 253.984 273.183 252.928 270.532 250.768C270.409 250.67 270.262 250.67 270.115 250.719C271.195 250.228 272.348 249.885 273.674 249.909C274.312 249.909 274.459 249.099 273.993 248.78C269.943 245.982 266.654 250.916 263.438 252.634C256.885 256.193 251.19 248.265 244.661 248.706C244.145 248.731 244.047 249.443 244.538 249.615C245.348 249.909 246.134 250.253 246.944 250.646C245.815 251.161 244.735 251.799 243.532 252.02C240.734 252.56 237.911 251.235 236.487 248.805C233.37 243.577 238.034 239.183 241.347 235.747C241.568 235.501 241.298 235.133 241.004 235.28C235.825 238.078 231.455 245.147 235.456 250.646C238.132 254.303 245.692 255.947 248.048 251.161C251.779 253.026 255.559 255.407 259.56 255.628C263.954 255.849 266.506 252.462 269.967 250.793C269.82 250.891 269.771 251.087 269.894 251.284C272.962 255.751 279.712 255.162 282.461 250.695C285.922 245.074 280.841 239.256 276.815 235.55Z" fill="#C27B55"/>
<path d="M245.495 233.341C248.441 232.04 251.362 230.887 254.553 230.347C257.719 229.807 260.836 230.15 264.027 229.978C264.42 229.954 264.469 229.438 264.125 229.316C260.223 227.892 255.461 228.334 251.239 229.806C255.068 223.817 256.664 215.865 255.289 208.943C255.191 208.452 254.479 208.599 254.455 209.066C254.185 216.748 252.835 223.228 249.963 230.297C248.22 231.009 246.6 231.844 245.201 232.826C244.857 233.047 245.127 233.488 245.495 233.341Z" fill="#C27B55"/>
<path d="M272.225 235.452C266.899 229.414 255.927 230.003 250.331 235.206C249.668 235.82 249.938 237.17 250.895 237.342C253.792 237.857 256.565 237.587 259.486 237.636C262.996 237.71 265.23 238.913 267.979 240.975C271.317 243.478 274.705 238.275 272.225 235.452Z" fill="#F8D5C3"/>
<path d="M163.391 209.311C163.391 209.311 165.6 157.029 167.073 146.966C168.3 136.657 173.209 108.675 182.782 101.066C192.355 93.4565 200.209 86.3383 224.264 91.2474C248.318 96.1565 252.245 101.066 269.673 97.1383C287.1 93.2111 297.409 89.5292 297.409 89.5292C297.409 89.5292 311.155 92.2292 320.236 94.4383C329.073 96.6474 336.191 105.484 342.573 121.193C348.709 136.902 356.318 167.584 354.6 189.429C352.882 211.275 356.809 208.084 356.809 208.084L364.909 190.166C364.909 190.166 372.518 175.929 368.836 164.393C368.836 164.393 370.555 154.084 370.309 148.684C370.064 143.284 365.891 135.675 365.891 135.675C365.891 135.675 367.609 118.738 365.891 112.847C364.173 106.957 362.7 104.747 362.7 104.747C362.7 104.747 364.173 94.4383 359.509 86.8292C354.845 79.2201 346.255 72.102 346.255 72.102C346.255 72.102 334.718 42.6474 324.409 37.7383C314.1 32.8292 309.682 25.2201 296.673 23.0111C283.664 20.802 268.2 24.2383 268.2 24.2383C268.2 24.2383 262.064 19.3292 248.073 23.7474C248.073 23.7474 238.255 19.8201 222.545 25.9565C206.836 32.0929 201.191 41.6656 201.191 41.6656C201.191 41.6656 185.482 47.0656 181.064 54.6747C181.064 54.6747 160.936 64.4929 155.536 81.4292C150.136 98.3656 153.327 107.693 153.327 107.693C153.327 107.693 147.191 121.929 151.609 135.92C151.609 135.92 144 144.02 149.4 163.657C149.4 163.657 144.982 172.984 150.627 186.729C156.273 200.72 155.782 208.82 163.391 209.311Z" fill="#2A232B"/>
<path d="M367.364 134.202C369.082 123.893 367.855 112.847 364.173 104.256C364.173 104.011 363.927 103.766 363.682 103.766C363.927 100.575 363.927 97.3838 363.191 93.9474C361.227 83.8838 354.355 77.5019 346.745 71.1201C346.5 71.1201 346.5 70.8747 346.5 70.8747C343.309 60.0747 337.664 49.7656 330.3 41.6656C314.836 24.2383 287.345 12.9474 265.991 26.9383C265.5 27.4292 265.745 28.411 266.482 28.1656C290.782 18.3474 315.327 27.6747 330.791 48.2929C343.555 65.2292 346.009 84.1292 344.536 104.747C344.291 106.22 346.745 106.466 347.236 105.238C349.936 95.6656 349.936 85.3565 347.482 75.5383C351.164 79.711 355.582 83.3929 358.036 88.3019C364.664 101.556 358.282 116.529 350.427 127.575C349.445 128.802 351.655 130.029 352.391 128.802C357.055 122.42 360.982 115.302 362.7 107.693C364.173 116.038 365.155 123.893 363.682 132.484C362.209 140.829 358.282 147.947 354.845 155.802C354.355 156.784 355.582 158.011 356.564 157.029C360.982 152.366 363.927 146.229 365.891 139.356C366.873 144.266 367.609 148.929 366.873 154.084C366.382 159.484 363.927 164.147 363.191 169.302C363.191 170.038 364.173 170.529 364.664 170.038C365.645 169.056 366.627 167.829 367.364 166.356C367.364 174.702 365.645 182.066 362.7 189.92C361.473 193.111 358.527 201.702 355.336 206.12C357.055 180.593 354.6 152.12 346.745 128.066C342.573 115.302 335.209 101.311 323.427 94.9292C324.9 94.9292 326.618 94.6838 328.091 94.4383C329.318 94.1929 329.318 92.2292 328.091 91.9838C313.609 89.2838 299.618 87.5656 286.855 79.2201C270.164 68.1747 258.873 47.802 264.027 27.6747C264.273 26.4474 262.555 25.9565 262.064 27.1838C252.491 51.2383 270.164 76.2747 292.991 88.0565C287.836 89.7747 282.436 91.2474 277.282 92.4747C256.418 92.4747 234.082 86.0929 227.945 63.2656C221.073 38.2292 243.655 19.0838 267.464 24.2383C268.445 24.4838 268.936 23.011 267.955 22.7656C260.591 19.8201 253.473 19.8201 246.845 22.0292C231.136 20.0656 214.691 24.4838 203.645 36.0201H203.155C194.318 41.1747 185.482 46.3292 179.1 53.6929C160.445 61.7929 144 87.3201 150.382 107.202C147.682 115.302 146.945 124.875 148.418 133.956C144.736 141.32 143.264 153.838 146.455 162.92C143.018 173.72 147.682 185.747 151.855 195.811C154.8 202.684 154.309 208.575 161.673 211.52C162.164 211.766 162.655 211.766 162.9 211.275C163.882 211.029 164.618 210.538 164.864 209.311C165.109 181.329 166.827 153.347 173.7 126.347C176.645 114.566 180.573 101.066 191.864 94.9292C204.627 87.811 221.318 91.9838 234.573 95.4201H234.818C254.455 104.011 279.491 101.066 297.655 90.2656C303.791 92.7201 310.173 94.4383 316.309 94.9292C335.7 102.047 343.064 126.593 346.255 145.493C350.182 167.093 352.145 188.202 350.673 210.047C350.427 212.011 352.882 212.256 353.864 211.275C360.245 208.084 360 202.438 362.7 195.811C367.118 185.747 371.291 173.475 368.1 162.92C372.518 154.084 371.045 141.566 367.364 134.202ZM175.418 108.92C162.409 138.62 161.673 175.193 161.427 207.102C157.991 203.175 154.8 193.602 153.327 189.92C150.382 182.066 148.418 174.702 148.664 166.356C149.4 167.829 150.382 169.056 151.364 170.038C151.855 170.529 153.082 170.284 152.836 169.302C152.1 164.147 149.645 159.238 149.155 154.084C148.664 148.929 149.155 144.266 150.382 139.356C152.1 145.984 155.291 152.366 159.709 157.029C160.691 158.011 161.918 156.784 161.427 155.802C157.991 147.947 154.064 141.075 152.591 132.484C151.364 125.366 151.855 118.493 152.836 111.375C154.555 114.566 157.009 117.756 160.2 120.456C161.182 121.193 162.9 120.211 162.164 118.984C146.455 96.8929 156.518 72.3474 176.645 58.3565C175.173 60.811 173.945 63.7565 173.209 66.702C170.509 77.011 174.927 90.0201 185.482 93.9474C186.464 94.4383 187.2 92.9656 186.464 92.2292C175.909 81.4292 172.227 68.6656 182.536 55.411C183.027 54.9201 183.273 54.4292 183.764 54.1838C184.009 54.1838 184.009 53.9383 184.255 53.9383C184.5 53.6929 184.745 53.4474 184.745 53.202C188.918 49.0292 194.318 46.3292 199.227 42.8929C190.636 57.1292 192.355 75.7838 206.345 85.602C207.082 86.0929 208.064 84.8656 207.327 84.3747C195.055 72.102 193.582 54.6747 204.382 40.9292C208.064 36.2656 212.482 32.8292 217.145 30.3747C203.891 43.1383 205.364 67.9292 216.655 81.6747C219.355 85.111 222.3 87.811 225.736 90.2656C206.1 84.8656 184.745 87.811 175.418 108.92ZM226.964 85.602C207.082 70.6292 205.609 41.1747 226.227 26.6929C231.627 25.2201 237.273 24.2383 242.918 23.9929C230.4 30.1292 221.564 44.1201 223.036 59.0929C225.245 79.2201 241.691 92.2292 260.1 95.6656C248.809 96.1565 237.518 93.702 226.964 85.602Z" fill="#1B141C"/>
<path d="M326.864 83.8838C313.364 83.8838 301.582 77.9929 292.745 68.1747C284.4 59.0929 271.145 42.6474 276.791 29.3929C277.282 28.4111 276.055 27.6747 275.564 28.6565C268.691 41.4201 279.245 55.6565 287.1 65.4747C296.918 77.7474 310.664 87.0747 326.864 85.3565C327.845 85.3565 327.845 83.8838 326.864 83.8838ZM270.655 77.9929C258.627 66.2111 245.618 51.9747 253.473 33.5656C253.964 32.5838 252.736 31.8474 252.245 32.8292C242.918 50.7474 255.436 68.6656 269.918 78.9747C270.409 79.4656 271.145 78.4838 270.655 77.9929ZM269.673 83.1474C254.209 72.8383 239.236 60.5656 239.482 40.4383C239.482 39.702 238.255 39.702 238.255 40.4383C237.273 60.5656 251.755 76.2747 269.182 84.1292C269.673 84.1292 270.164 83.6383 269.673 83.1474ZM274.582 85.111C260.345 84.3747 248.073 79.4656 238.745 68.4201C238.255 67.9292 237.273 68.6656 237.764 69.402C246.6 80.202 260.345 87.3201 274.336 86.5838C275.318 86.3383 275.318 85.3565 274.582 85.111ZM231.873 79.9565C219.109 67.1929 212.727 49.2747 226.473 34.302C227.209 33.3201 225.982 32.0929 225.245 33.0747C210.027 46.8201 214.691 70.8747 230.645 82.1656C231.627 82.6565 232.855 80.9383 231.873 79.9565ZM210.764 77.0111C203.4 67.1929 201.191 55.1656 206.345 43.8747C206.836 43.1383 205.609 42.402 205.118 43.1383C199.227 54.4292 200.455 68.6656 209.782 77.7474C210.273 78.2383 211.009 77.7474 210.764 77.0111ZM189.409 56.6383C189.655 55.902 188.673 55.6565 188.427 56.3929C186.709 62.7747 186.464 70.1383 189.409 76.0292C189.655 76.7656 190.882 76.2747 190.636 75.5383C188.918 69.1565 187.936 63.2656 189.409 56.6383ZM189.409 81.6747C187.445 79.2201 185.482 77.011 184.255 74.0656C184.009 73.5747 183.273 74.0656 183.518 74.3111C184.745 77.2565 186.464 80.202 189.164 82.1656C189.164 82.411 189.655 81.9201 189.409 81.6747ZM169.527 99.102C164.373 89.5292 163.636 80.9383 166.582 70.6292C166.827 69.6474 165.355 69.1565 165.109 70.1383C161.918 79.4656 160.445 92.4747 168.3 100.084C168.791 101.066 170.018 100.084 169.527 99.102ZM164.618 107.938C160.936 101.802 158.727 96.1565 159.218 89.0383C159.218 88.5474 158.482 88.5474 158.236 89.0383C157.5 95.9111 158.727 103.52 163.636 108.675C164.373 109.166 165.109 108.675 164.618 107.938ZM159.218 145.002C156.273 136.902 154.309 129.293 155.045 120.211C155.045 119.72 154.309 119.475 154.064 120.211C152.836 128.802 153.327 138.129 157.745 145.738C158.236 146.229 159.464 145.738 159.218 145.002ZM150.382 151.629C150.136 151.138 149.645 151.629 149.645 151.875C150.627 154.575 151.364 157.275 152.836 159.729C153.082 160.22 153.818 159.975 153.573 159.484C153.082 156.784 151.609 154.084 150.382 151.629ZM356.073 96.6474C355.582 92.9656 355.336 85.602 350.673 85.3565C349.936 85.3565 349.691 86.3383 350.427 86.5838C354.355 88.5474 354.109 99.3474 354.109 102.784C353.864 107.938 352.636 112.602 350.918 117.266C350.673 118.002 351.9 118.493 352.391 117.756C355.582 111.375 356.809 104.011 356.073 96.6474ZM361.718 120.457C361.473 119.475 360.245 119.966 360.245 120.947C361.718 128.557 359.509 135.184 355.582 141.566C355.091 142.302 356.073 143.038 356.809 142.547C362.209 136.656 363.682 127.82 361.718 120.457ZM364.664 149.175C364.664 148.438 363.436 148.438 363.436 149.175C363.927 153.593 363.191 157.766 362.209 161.938C362.209 162.429 362.7 162.675 362.945 162.184C364.909 158.256 365.155 153.593 364.664 149.175ZM308.945 34.302C308.209 34.0565 307.964 35.0383 308.7 35.2838C326.373 42.6474 336.682 68.4201 342.082 85.111C342.327 85.8474 343.309 85.602 343.064 84.8656C338.891 67.1929 327.109 41.1747 308.945 34.302Z" fill="#3A353A"/>
</g>
</g>
<rect x="6" y="6" width="501" height="501" rx="250.5" stroke="#5A82AC" stroke-width="12"/>
<defs>
<clipPath id="clip0_303_549">
<rect width="513" height="513" rx="256.5" fill="white"/>
</clipPath>
<clipPath id="clip1_303_549">
<rect width="393.218" height="492.729" fill="white" transform="translate(60.5455 20.4546)"/>
</clipPath>
</defs>
</svg>
